# xmcd
#
# Track frame offsets: 
#        150
#        8046
#        16408
#        27414
#        44836
#        57845
#        65608
#        72434
#        81831
#        87992
#
# Disc length: 1351 seconds
#
# Revision: 0
# Processed by: cddbd v1.5.2PL0 Copyright (c) Steve Scherf et al.
# Submitted via: ExactAudioCopy v0.99pb1
#
DISCID=8505450a
DTITLE=Carneirinho Carneirão - Cantar e Brincar Vol 05
DYEAR=2008
DGENRE=Acid Punk
TTITLE0=Carneirinho carneirão
TTITLE1=A tuba do Serafim
TTITLE2=A janelinha
TTITLE3=Leia a bíblia
TTITLE4=Prenda minha
TTITLE5=A eu entrei na roda
TTITLE6=De olhos vermelhos
TTITLE7=Pedro, Tiago e João
TTITLE8=Fui ao mercado
TTITLE9=Dó, ré, mi, fá
EXTD=
EXTT0=
EXTT1=
EXTT2=
EXTT3=
EXTT4=
EXTT5=
EXTT6=
EXTT7=
EXTT8=
EXTT9=
PLAYORDER=
